<svg width="604" height="558" viewBox="0 0 604 558" fill="none" xmlns="http://www.w3.org/2000/svg">
<path d="M314.17 523.96C454.931 523.96 569.04 513.712 569.04 501.07C569.04 488.428 454.931 478.18 314.17 478.18C173.409 478.18 59.3 488.428 59.3 501.07C59.3 513.712 173.409 523.96 314.17 523.96Z" fill="#192F85"/>
<path d="M506.91 47.2H141.75V400.14H506.91V47.2Z" fill="#F9EEED"/>
<path d="M291.17 113.93C305.999 113.93 318.02 101.909 318.02 87.08C318.02 72.2511 305.999 60.23 291.17 60.23C276.341 60.23 264.32 72.2511 264.32 87.08C264.32 101.909 276.341 113.93 291.17 113.93Z" fill="#FFBA4F"/>
<path d="M508.12 153.13H433.42V403.71H508.12V153.13Z" fill="#BAC2E3"/>
<path d="M215.77 153.13H141.07V403.71H215.77V153.13Z" fill="#BAC2E3"/>
<path d="M350.57 187.08H297.6V403.71H350.57V187.08Z" fill="#BAC2E3"/>
<path d="M285.38 208.14H232.41V403.72H285.38V208.14Z" fill="#BAC2E3"/>
<path d="M437.5 223.76H203.72V403.72H437.5V223.76Z" fill="#BAC2E3"/>
<path d="M459.05 165.01H446.15V185.89H459.05V165.01Z" fill="white"/>
<path d="M487.58 195.57H474.68V216.45H487.58V195.57Z" fill="white"/>
<path d="M457.36 220.02H444.46V240.9H457.36V220.02Z" fill="white"/>
<path d="M478.24 261.28H465.34V282.16H478.24V261.28Z" fill="white"/>
<path d="M446.49 297.27H433.59V318.15H446.49V297.27Z" fill="white"/>
<path d="M490.46 338.01H477.56V358.89H490.46V338.01Z" fill="white"/>
<path d="M405.15 262.29H392.25V283.17H405.15V262.29Z" fill="white"/>
<path d="M328.5 214.42H315.6V235.3H328.5V214.42Z" fill="white"/>
<path d="M197.6 175.71H184.7V196.59H197.6V175.71Z" fill="white"/>
<path d="M340.98 293.36H328.08V314.24H340.98V293.36Z" fill="white"/>
<path d="M403.45 336.82H390.55V357.7H403.45V336.82Z" fill="white"/>
<path d="M300.49 262.04H287.59V282.92H300.49V262.04Z" fill="white"/>
<path d="M277.82 327.74H264.92V348.62H277.82V327.74Z" fill="white"/>
<path d="M167.22 176.13H154.32V197.01H167.22V176.13Z" fill="white"/>
<path d="M184.19 224.01H171.29V244.89H184.19V224.01Z" fill="white"/>
<path d="M184.19 286.66H171.29V307.54H184.19V286.66Z" fill="white"/>
<path d="M231.81 286.66H218.91V307.54H231.81V286.66Z" fill="white"/>
<path d="M230.88 241.33H217.98V262.21H230.88V241.33Z" fill="white"/>
<path d="M266.53 227.24H253.63V248.12H266.53V227.24Z" fill="white"/>
<path d="M506.76 46.17H140.05V403.71H506.76V46.17Z" stroke="#1C1737" stroke-width="5.09316" stroke-miterlimit="10"/>
<path d="M496.83 98.17C497.415 96.8874 497.668 95.4784 497.566 94.0724C497.465 92.6665 497.011 91.3086 496.247 90.1238C495.484 88.9389 494.434 87.965 493.196 87.2916C491.957 86.6182 490.57 86.2669 489.16 86.27C488.234 86.2738 487.315 86.4292 486.44 86.73C486.077 84.8309 485.307 83.0331 484.183 81.4602C483.059 79.8873 481.607 78.5767 479.927 77.6187C478.248 76.6607 476.381 76.078 474.455 75.9108C472.529 75.7436 470.589 75.9957 468.77 76.65C466.871 73.3932 464.027 70.791 460.615 69.1889C457.202 67.5868 453.383 67.0606 449.665 67.6802C445.946 68.2998 442.504 70.0358 439.796 72.6578C437.087 75.2797 435.24 78.6636 434.5 82.36C432.743 81.2041 430.72 80.5146 428.623 80.3565C426.525 80.1984 424.422 80.5768 422.511 81.4561C420.601 82.3355 418.945 83.6867 417.701 85.3827C416.457 87.0786 415.665 89.0634 415.4 91.15C414.227 90.5102 412.903 90.1977 411.568 90.2452C410.233 90.2927 408.935 90.6985 407.81 91.42C407.549 88.6074 406.276 85.9853 404.226 84.0417C402.177 82.098 399.491 80.9651 396.669 80.8538C393.846 80.7425 391.08 81.6604 388.883 83.4367C386.687 85.213 385.211 87.7267 384.73 90.51C384.112 90.3332 383.473 90.2423 382.83 90.24C381.951 90.2387 381.081 90.4108 380.268 90.7465C379.456 91.0823 378.718 91.575 378.097 92.1965C377.475 92.818 376.982 93.556 376.647 94.3683C376.311 95.1805 376.139 96.0511 376.14 96.93C376.139 97.3462 376.18 97.7616 376.26 98.17H496.83Z" fill="white"/>
<path d="M393 172C393.31 171.329 393.47 170.599 393.47 169.86C393.475 169.031 393.281 168.214 392.904 167.476C392.527 166.738 391.978 166.102 391.303 165.621C390.629 165.139 389.849 164.827 389.028 164.711C388.208 164.594 387.372 164.676 386.59 164.95C386.37 163.778 385.898 162.667 385.206 161.695C384.514 160.723 383.619 159.914 382.583 159.322C381.547 158.73 380.395 158.371 379.207 158.269C378.018 158.167 376.822 158.324 375.7 158.73C374.526 156.725 372.771 155.124 370.667 154.139C368.563 153.153 366.21 152.83 363.918 153.211C361.626 153.593 359.505 154.662 357.834 156.276C356.162 157.89 355.021 159.973 354.56 162.25C353.477 161.539 352.23 161.115 350.938 161.019C349.646 160.922 348.35 161.156 347.173 161.698C345.996 162.24 344.976 163.073 344.209 164.117C343.442 165.162 342.954 166.385 342.79 167.67C342.112 167.3 341.352 167.108 340.58 167.11C339.703 167.109 338.845 167.363 338.11 167.84C337.945 166.107 337.158 164.493 335.893 163.297C334.629 162.101 332.974 161.404 331.235 161.336C329.496 161.267 327.791 161.832 326.436 162.925C325.082 164.018 324.17 165.566 323.87 167.28C323.49 167.167 323.096 167.11 322.7 167.11C321.605 167.11 320.554 167.545 319.78 168.32C319.005 169.094 318.57 170.145 318.57 171.24C318.571 171.495 318.598 171.75 318.65 172H393Z" fill="white"/>
<path d="M246.67 94.53C246.977 93.8587 247.134 93.1283 247.13 92.39C247.13 91.5642 246.933 90.7504 246.555 90.0161C246.177 89.2818 245.63 88.6483 244.958 88.1681C244.286 87.688 243.509 87.3751 242.692 87.2554C241.875 87.1357 241.041 87.2127 240.26 87.48C240.035 86.3101 239.56 85.2027 238.867 84.2337C238.174 83.2647 237.28 82.457 236.245 81.8662C235.211 81.2753 234.061 80.9153 232.874 80.8106C231.687 80.706 230.492 80.8593 229.37 81.26C228.195 79.2551 226.44 77.6543 224.335 76.6695C222.23 75.6846 219.876 75.3622 217.584 75.7449C215.292 76.1276 213.171 77.1974 211.5 78.8126C209.83 80.4278 208.689 82.5123 208.23 84.79C206.985 83.9638 205.524 83.5253 204.03 83.53C202.17 83.532 200.375 84.2112 198.98 85.4406C197.585 86.6701 196.686 88.3655 196.45 90.21C195.777 89.8361 195.02 89.64 194.25 89.64C193.37 89.6407 192.51 89.8941 191.77 90.37C191.613 88.6329 190.828 87.0125 189.563 85.8115C188.298 84.6104 186.64 83.9109 184.897 83.8435C183.154 83.7762 181.446 84.3456 180.092 85.4454C178.738 86.5452 177.831 88.1002 177.54 89.82C177.162 89.6988 176.767 89.638 176.37 89.64C175.275 89.64 174.224 90.0751 173.45 90.8497C172.675 91.6242 172.24 92.6747 172.24 93.77C172.243 94.0248 172.266 94.279 172.31 94.53H246.67Z" fill="white"/>
<path d="M224.94 47.19H219.51V403.03H224.94V47.19Z" fill="#1C1737"/>
<path d="M421.87 47.19H416.44V403.03H421.87V47.19Z" fill="#1C1737"/>
<path d="M504.73 124.61V119.18L140.31 119.18V124.61L504.73 124.61Z" fill="#1C1737"/>
<path d="M504.72 347.35V341.92H140.3V347.35H504.72Z" fill="#1C1737"/>
<path d="M347.86 486.21L336.16 498.21H329.57L335.31 486.1L347.86 486.21Z" fill="#F9CFCD"/>
<path d="M516.09 486.21L527.78 498.21H534.38L528.63 486.1L516.09 486.21Z" fill="#F9CFCD"/>
<path d="M534.16 467.23H329.67V487.01H534.16V467.23Z" fill="#FCCFCD"/>
<path d="M537.83 383.33H326V479.03H537.83V383.33Z" fill="#FFDFDC"/>
<path d="M435.83 391.62H337.57V414.59H435.83V391.62Z" stroke="#1C1737" stroke-width="1.01863" stroke-miterlimit="10"/>
<path d="M400.73 394.81H372.66V398.96H400.73V394.81Z" fill="#1C1737"/>
<path d="M435.83 419.7H337.57V442.67H435.83V419.7Z" stroke="#1C1737" stroke-width="1.01863" stroke-miterlimit="10"/>
<path d="M400.73 422.89H372.66V427.04H400.73V422.89Z" fill="#1C1737"/>
<path d="M435.83 448.09H337.57V471.06H435.83V448.09Z" stroke="#1C1737" stroke-width="1.01863" stroke-miterlimit="10"/>
<path d="M400.73 451.28H372.66V455.43H400.73V451.28Z" fill="#1C1737"/>
<path d="M529.32 391H448.13V470.11H529.32V391Z" fill="#1C1737"/>
<path d="M503.78 394.81H475.71V398.96H503.78V394.81Z" fill="#FFDFDC"/>
<path d="M283.82 417.35L296.73 506.65H293.33L275 419.39L283.82 417.35Z" fill="#1C1737"/>
<path d="M208.1 417.35L195.2 506.65H198.6L216.93 419.39L208.1 417.35Z" fill="#1C1737"/>
<path d="M169.06 417.35L156.15 506.65H159.55L177.88 419.39L169.06 417.35Z" fill="#1C1737"/>
<path d="M235.1 430.76C142.42 429.26 150.55 421.59 127.63 357.42C104.71 293.25 153.1 266.76 203.01 276.42C252.92 286.08 295.71 316.14 301.82 359.95C307.93 403.76 329.32 432.29 235.1 430.76Z" fill="#FFBA4F"/>
<path d="M278.73 400C278.73 400 175.62 400.06 170.73 393.21C152.4 367.41 132.03 320.89 150.02 305.95" stroke="#1C1737" stroke-width="1.01863" stroke-linecap="round" stroke-linejoin="round"/>
<path d="M328.9 447.63L340 461.38C340 461.38 335.9 473.38 337.6 477.38C337.6 477.38 345.1 478.53 348.11 481.11C351.12 483.69 354.76 489.59 364.06 488.54C373.36 487.49 375.59 485.85 375.59 485.85L376.64 485.51C375.12 482.12 370.9 480.09 367.18 479.51C365.554 479.411 363.995 478.822 362.71 477.82C360.36 475.44 349.86 459.82 349.86 459.82L332.16 432.26L328.9 447.63Z" fill="#FF899E"/>
<path d="M345.55 479.11L347.93 490.75L343.03 491.63L337.63 477.41L345.55 479.11Z" fill="#1C1737"/>
<path d="M366.19 489C375.36 487.34 377.19 486.23 377.4 486.11C377.485 486.074 377.56 486.02 377.621 485.951C377.682 485.882 377.727 485.8 377.753 485.712C377.778 485.624 377.784 485.531 377.769 485.44C377.754 485.349 377.72 485.263 377.667 485.187C377.615 485.112 377.547 485.049 377.467 485.003C377.388 484.957 377.299 484.929 377.207 484.922C377.115 484.914 377.023 484.927 376.937 484.96C376.851 484.992 376.774 485.044 376.71 485.11C376.65 485.11 374.81 486.25 365.76 487.85C357.36 489.36 353.01 485.07 349.52 481.62L348.57 480.69C344.71 476.98 337.31 476.69 337 476.69C336.919 476.687 336.837 476.701 336.761 476.729C336.685 476.758 336.615 476.802 336.556 476.857C336.496 476.913 336.448 476.98 336.415 477.054C336.381 477.128 336.363 477.209 336.36 477.29C336.357 477.371 336.371 477.452 336.4 477.527C336.428 477.603 336.472 477.672 336.528 477.731C336.584 477.789 336.651 477.836 336.725 477.869C336.799 477.901 336.879 477.919 336.96 477.92C337.03 477.92 344.2 478.19 347.71 481.57L348.65 482.49C352.15 485.95 356.95 490.68 365.98 489.06L366.19 489Z" fill="#1C1737"/>
<path d="M366.71 479.37L366.65 488.11C366.65 488.11 361.38 488.75 359.09 488.33C357.141 487.823 355.263 487.074 353.5 486.1L359.5 473.67C359.5 473.67 364.4 479.47 366.71 479.37Z" fill="#1C1737"/>
<path d="M300.6 461L309.11 476.5C309.11 476.5 302.94 487.55 303.9 491.85C303.9 491.85 311.07 494.32 313.58 497.39C316.09 500.46 318.58 506.92 327.95 507.54C337.32 508.16 339.78 506.95 339.78 506.95L340.87 506.79C339.98 503.19 336.18 500.44 332.62 499.26C330.9 498.68 329.25 497.88 328.52 496.8C326.63 494.03 319.07 476.8 319.07 476.8L306.55 446.53L300.6 461Z" fill="#FF899E"/>
<path d="M311.39 494.95L311.66 506.83L306.68 506.82L303.9 491.87L311.39 494.95Z" fill="#1C1737"/>
<path d="M329.93 508.39C339.25 508.39 341.28 507.62 341.48 507.53C341.629 507.464 341.746 507.342 341.806 507.191C341.866 507.039 341.864 506.87 341.8 506.72C341.732 506.57 341.608 506.453 341.455 506.393C341.302 506.333 341.131 506.336 340.98 506.4C340.91 506.4 338.92 507.18 329.72 507.15C321.18 507.15 317.67 502.15 314.84 498.15L314.08 497.07C310.94 492.73 303.71 491.15 303.4 491.07C303.246 491.051 303.09 491.092 302.964 491.182C302.838 491.273 302.751 491.408 302.719 491.56C302.688 491.712 302.715 491.871 302.794 492.004C302.874 492.137 303.001 492.236 303.15 492.28C303.22 492.28 310.22 493.83 313.08 497.78C313.32 498.13 313.58 498.48 313.83 498.85C316.66 502.85 320.54 508.39 329.72 508.4L329.93 508.39Z" fill="#1C1737"/>
<path d="M332.16 499L330.55 507.6C330.55 507.6 325.25 507.28 323.07 506.46C321.245 505.615 319.532 504.547 317.97 503.28L326.12 492.12C326.12 492.12 329.88 498.66 332.16 499Z" fill="#1C1737"/>
<path d="M182.9 221.14C178.04 224.715 174.486 229.783 172.78 235.57C171.68 239.35 171.36 243.4 169.66 246.95C168.033 250.328 165.237 253.003 161.79 254.48C156.34 256.77 149.96 255.72 144.55 258.09C142.66 258.931 140.961 260.148 139.558 261.668C138.155 263.188 137.077 264.979 136.39 266.93C135.714 268.894 135.437 270.974 135.577 273.047C135.716 275.12 136.268 277.144 137.2 279C139.06 282.62 142.33 285.44 143.64 289.31C145.19 293.89 143.64 299.06 144.99 303.71C145.716 306.149 147.193 308.297 149.212 309.846C151.23 311.396 153.686 312.269 156.23 312.34L156.15 307.62H155.15" stroke="#382C6F" stroke-width="0.789078" stroke-miterlimit="10"/>
<path d="M146 301.43C146.32 306.43 149.86 310.72 154.13 313.18C158.4 315.64 163.33 316.55 168.18 317.32C173.03 318.09 178.18 318.76 183.18 318.02C188.18 317.28 193.11 315.02 196.08 310.85C200.16 305.19 200.33 296.61 206.08 292.78C211.31 289.32 219.28 291.27 223.39 286.5C226.33 283.08 225.71 277.75 223.81 273.65C221.91 269.55 219 266 217.45 261.72C215.51 256.21 216.19 250.16 215.96 244.31C215.79 239.929 215.092 235.584 213.88 231.37C213.239 228.719 212.054 226.229 210.4 224.06C207.99 221.17 204.4 219.64 200.75 218.71C196.183 217.418 191.359 217.336 186.75 218.47C184.443 219.066 182.284 220.131 180.406 221.599C178.529 223.066 176.975 224.905 175.84 227C172.09 234.33 174.66 244.26 169.44 250.59C162.65 258.83 147.2 255.36 141.77 264.59C139.08 269.15 140.18 275 142 279.97C143.82 284.94 146.35 289.87 146.29 295.18C146.27 297.23 145.83 299.33 146 301.43Z" fill="#382C6F"/>
<path d="M177.36 250.61C176.676 253.506 175.433 256.241 173.7 258.66C169.9 263.66 163.32 266.49 160.81 272.32C159.719 274.885 159.56 277.75 160.36 280.42" stroke="white" stroke-width="0.394538" stroke-linecap="round" stroke-linejoin="round"/>
<path d="M192 343.44C192 343.44 179.73 393.5 207 397.82C223 400.37 282 400.65 282 400.65C282 400.65 276.67 422.1 306.89 475.41C306.89 475.41 319.12 472.69 321.15 469.98L299.49 386.07C299.49 386.07 301.8 412.93 336.09 462.17C336.09 462.17 349.55 451.54 348.66 450.62C343.52 445.33 318.44 366.42 305.87 356.57C302.25 353.73 239.58 353.26 239.58 353.26L233.21 347.91L227.86 335.18L192 343.44Z" fill="#9D8BF0"/>
<path d="M300.55 354.36C306.4 354.36 309.46 357.42 314.3 367.1C319.14 376.78 348.68 450.88 348.68 450.88" stroke="#1C1737" stroke-width="0.949137" stroke-linecap="round" stroke-linejoin="round"/>
<path d="M205.3 397.15C215.91 397.99 294.35 376.26 294.35 376.26C294.35 376.26 298.08 391.2 302.16 400.03" stroke="#1C1737" stroke-width="0.949137" stroke-linecap="round" stroke-linejoin="round"/>
<path d="M237.9 352.58C227.701 353.863 217.584 355.732 207.6 358.18" stroke="#1C1737" stroke-width="0.949137" stroke-linecap="round" stroke-linejoin="round"/>
<path d="M219.14 355.38L214.05 343.16L219.14 341.8L223.89 354.7" stroke="#1C1737" stroke-width="0.949137" stroke-linecap="round" stroke-linejoin="round"/>
<path d="M191.81 351.31C191.81 351.31 190.11 382.04 199.81 383.05C209.51 384.06 296.58 368.79 298.1 370.49C299.62 372.19 316.44 433.82 339.53 456.4" stroke="#1C1737" stroke-width="0.949137" stroke-linecap="round" stroke-linejoin="round"/>
<path d="M246 389.17C246 389.17 286.58 388.49 287.94 389.17C289.3 389.85 312.94 472.35 312.94 472.35" stroke="#1C1737" stroke-width="0.949137" stroke-linecap="round" stroke-linejoin="round"/>
<path d="M193 371.68C193 371.68 202.85 366.76 201 350.29" stroke="#1C1737" stroke-width="0.949137" stroke-linecap="round" stroke-linejoin="round"/>
<path d="M235.1 350.29C235.1 350.29 228.65 351.82 223.89 337.05" stroke="#1C1737" stroke-width="0.949137" stroke-linecap="round" stroke-linejoin="round"/>
<path d="M210.29 278C210.29 278 218.55 278.76 220.07 280.54C221.59 282.32 232.67 307.76 232.67 307.76L229 315.15L208.11 312.85H200.47L189.78 305.21L210.29 278Z" fill="#FF899E"/>
<path d="M230.59 302.53L237.59 319.47L272.48 342.65L284.84 319.47L294.13 321.11C291.947 321.99 289.645 322.543 287.3 322.75L286.75 330.68L268 350.29C268 350.29 233.1 331.29 229.55 329.66C226 328.03 222.64 319.74 222.64 319.74L230.59 302.53Z" fill="#FF899E"/>
<path d="M186.87 272.93C186.87 272.93 165.58 283.14 164.45 285.6C161.76 291.46 165.7 310.05 165.7 310.05L207.37 303.05L213.37 283.74L210.27 277.95L186.87 272.93Z" fill="#FF899E"/>
<path d="M184.25 251.86C184.25 251.86 184.52 271.44 183.92 272.98C183.32 274.52 172.06 280.5 172.06 280.5C172.06 280.5 192.53 287.45 207.22 278C207.22 278 199.02 274.41 198.5 273.25C197.98 272.09 196.21 259.5 196.21 259.5L184.25 251.86Z" fill="#FF899E"/>
<path opacity="0.39" d="M187.22 256.32L190.39 258.32L196.9 263.25C197.1 264.65 197.37 267.12 197.76 269.56C194.932 269.206 192.231 268.171 189.89 266.544C187.55 264.917 185.638 262.747 184.32 260.22C184.32 259.01 184.32 257.12 184.32 256.22L187.22 256.32Z" fill="#E0598E"/>
<path d="M204.79 308.52C204.79 308.52 214.47 291.72 215.49 291.21C216.21 290.85 224.66 304.45 224.66 304.45L226.22 307.45C226.61 308.177 226.815 308.99 226.815 309.815C226.815 310.64 226.61 311.453 226.22 312.18L224.22 315.92L230.58 343.53C230.58 343.53 210.63 364.3 185.22 360.75L181.31 297.2C181.31 297.2 203.78 307.25 204.79 308.52Z" fill="#FFDFDC"/>
<path d="M178.31 347.74C170.38 347.74 163.92 298.85 163.92 298.85L181.37 301.39L186.87 328.55" fill="#FF899E"/>
<path d="M212.21 241.31C212.13 259.31 202.54 266.03 198.48 265.97C193.22 265.9 184.53 260.97 183.22 252.88C183.22 252.88 176.81 252.16 176.71 248.58C176.53 242 181.25 245.93 181.25 245.93C181.25 245.93 174.78 222.6 192.91 219.59C204.75 217.63 212.28 224.05 212.21 241.31Z" fill="#FF899E"/>
<path d="M191.24 240.49C191.45 240.11 192.24 240.1 192.64 240.03C193.418 239.87 194.219 239.86 195 240C195.606 240.106 196.204 240.253 196.79 240.44C197.19 240.57 197.87 240.88 198.26 240.58C198.366 240.469 198.43 240.324 198.441 240.171C198.452 240.017 198.409 239.865 198.32 239.74C197.92 239.15 196.89 239 196.25 238.87C194.36 238.48 192.25 238.62 191.24 240.49Z" fill="#382C6F"/>
<path d="M211.8 241.75C211.65 241.34 210.8 241.23 210.48 241.1C209.745 240.841 208.969 240.719 208.19 240.74C207.573 240.758 206.958 240.822 206.35 240.93C205.94 241 205.22 241.21 204.88 240.86C204.787 240.737 204.742 240.585 204.751 240.431C204.76 240.277 204.823 240.131 204.93 240.02C205.41 239.5 206.46 239.48 207.1 239.44C209 239.33 211.05 239.76 211.8 241.75Z" fill="#382C6F"/>
<path opacity="0.39" d="M189.83 248.66C189.91 247.84 191.28 247.3 192.89 247.46C194.5 247.62 195.75 248.41 195.67 249.23C195.59 250.05 194.21 250.59 192.6 250.43C190.99 250.27 189.75 249.48 189.83 248.66Z" fill="#E0598E"/>
<path opacity="0.39" d="M205.49 249.77C205.57 248.95 206.8 248.4 208.23 248.54C209.66 248.68 210.75 249.46 210.67 250.28C210.59 251.1 209.37 251.65 207.94 251.51C206.51 251.37 205.41 250.59 205.49 249.77Z" fill="#E0598E"/>
<path d="M200 252.55C200.435 252.548 200.864 252.451 201.258 252.266C201.651 252.081 202 251.813 202.28 251.48C202.309 251.448 202.329 251.409 202.338 251.367C202.347 251.325 202.344 251.281 202.33 251.24C201.55 248.703 201.457 246.005 202.06 243.42C202.069 243.388 202.072 243.354 202.067 243.321C202.063 243.288 202.052 243.256 202.035 243.227C202.019 243.198 201.996 243.173 201.97 243.153C201.943 243.133 201.912 243.118 201.88 243.11C201.848 243.101 201.815 243.099 201.783 243.103C201.75 243.107 201.719 243.118 201.691 243.135C201.663 243.152 201.639 243.174 201.619 243.201C201.6 243.228 201.587 243.258 201.58 243.29C200.95 245.93 201.03 248.69 201.81 251.29C201.59 251.541 201.319 251.743 201.016 251.882C200.713 252.022 200.384 252.096 200.05 252.1H200C199.941 252.102 199.884 252.126 199.84 252.166C199.796 252.206 199.768 252.26 199.761 252.319C199.754 252.378 199.768 252.438 199.801 252.488C199.834 252.537 199.883 252.573 199.94 252.59L200 252.55Z" fill="#E0598E"/>
<path d="M195.44 256L199.16 255L200.4 256.19L201.71 255.19L204.4 256.83C204.4 256.83 202.77 260.73 199.55 260.63C196.33 260.53 195.44 256 195.44 256Z" fill="#E0598E"/>
<path d="M193.57 244.64C193.66 243.71 194.3 243.01 194.99 243.08C195.369 243.182 195.694 243.425 195.897 243.761C196.1 244.096 196.166 244.497 196.08 244.88C195.99 245.81 195.35 246.5 194.66 246.44C194.283 246.336 193.959 246.092 193.756 245.757C193.554 245.422 193.487 245.023 193.57 244.64V244.64Z" fill="#1C1737"/>
<path d="M206.06 245.68C206.15 244.75 206.79 244.05 207.48 244.12C207.859 244.221 208.184 244.465 208.387 244.801C208.59 245.136 208.656 245.537 208.57 245.92C208.48 246.85 207.84 247.54 207.15 247.48C206.771 247.379 206.446 247.135 206.243 246.799C206.04 246.464 205.974 246.063 206.06 245.68V245.68Z" fill="#1C1737"/>
<path d="M179.63 253.48C179.78 251.14 181.04 249.31 182.44 249.4C183.84 249.49 184.85 251.46 184.7 253.8C184.55 256.14 183.3 257.97 181.9 257.88C180.5 257.79 179.48 255.82 179.63 253.48Z" fill="#FFBA4F"/>
<path d="M178.89 241.46L181.25 245.93C181.25 245.93 196.92 238.22 200.74 227.28C200.74 227.28 209.46 238.01 213.74 241.48C213.74 241.48 214.61 224.57 206.39 221.48C198.17 218.39 186.17 216.2 181.81 223.11C177.45 230.02 178.89 241.46 178.89 241.46Z" fill="#382C6F"/>
<path d="M194.44 221.77C190.353 224.224 186.87 227.565 184.248 231.546C181.625 235.527 179.931 240.046 179.29 244.77" stroke="white" stroke-width="0.394538" stroke-linecap="round" stroke-linejoin="round"/>
<path d="M191.24 221C186.31 222.15 182.51 226.33 180.24 231C177.97 235.67 177.01 240.75 175.64 245.72C174.81 248.72 173.79 251.72 171.82 254.15C168.43 258.24 162.9 259.68 158.76 262.96C156.412 264.885 154.565 267.348 153.376 270.141C152.186 272.934 151.69 275.974 151.93 279C152.47 285.06 154.3 288.25 156.78 290.52" stroke="white" stroke-width="0.394538" stroke-linecap="round" stroke-linejoin="round"/>
<path d="M215.74 293.92C215.74 293.92 214.05 280.17 211.67 277.8" stroke="#FFDFDC" stroke-width="1.01863" stroke-linecap="round" stroke-linejoin="round"/>
<path d="M182.13 299C182.13 299 180.6 285.92 175.13 278.12" stroke="#FFDFDC" stroke-width="1.01863" stroke-linecap="round" stroke-linejoin="round"/>
<path d="M105.78 302.86C102.71 301.71 99.78 305.02 98.69 308.1C95.82 315.96 96.69 325.75 90.49 331.41C89.28 332.52 87.85 333.41 86.74 334.62C84.9822 336.776 83.9965 339.459 83.94 342.24C83.56 347.78 85.28 353.24 85.94 358.73C86.6 364.22 85.94 370.47 81.94 374.24C79.94 376.06 77.35 377.15 75.62 379.24C72.03 383.52 73.62 389.93 75.3 395.24C76.98 400.55 78.2 407.24 74.19 411.09C73.11 412.14 71.73 412.86 70.73 413.99C68.32 416.71 68.73 420.83 69.33 424.41C71.5167 437.53 74.1833 450.56 77.33 463.5C77.4865 464.549 77.9531 465.528 78.67 466.31C79.67 467.21 81.19 467.19 82.55 467.12L92.81 466.6C94.65 466.5 96.61 466.37 98.13 465.32C99.65 464.27 100.57 462.2 101.26 460.32C104.26 452.06 106.97 443.64 109.26 435.12C110.65 429.87 111.85 424.12 109.6 419.12C108.41 416.53 106.36 414.38 105.37 411.71C101.69 401.77 114.04 392.48 113.79 381.88C113.62 375.05 108.19 369.16 108.11 362.33C108.03 354.45 115.11 346.69 111.86 339.5C110.8 337.12 108.75 335.32 107.51 333.04C103.64 325.97 108.41 317.43 108.79 309.38C108.88 306.83 108.17 303.76 105.78 302.86Z" fill="#9D8BF0"/>
<path d="M103.22 309C99.32 319.32 95.36 330.27 97.34 341.12C97.841 343.116 98.1755 345.149 98.34 347.2C98.4 353.37 93.59 358.57 92.56 364.65C91.49 370.99 94.65 377.43 93.88 383.82C93.15 389.82 89.08 394.82 86.12 400.12C83.16 405.42 81.34 412.43 85 417.29C86.68 419.55 89.31 420.99 90.89 423.29C93.89 427.78 92.13 433.82 90.16 438.86C86.8 447.43 83.08 456.72 85.61 465.58" stroke="#EFEFEF" stroke-width="0.541386" stroke-linecap="round" stroke-linejoin="round"/>
<path d="M94 379C93.93 377.26 93.88 375.41 94.8 373.93C96.17 371.72 99.27 371.06 100.65 368.84C101.91 366.84 101.32 364.2 101.46 361.84C101.571 360.129 102.07 358.465 102.919 356.976C103.768 355.486 104.945 354.208 106.36 353.24" stroke="#EFEFEF" stroke-width="0.541386" stroke-linecap="round" stroke-linejoin="round"/>
<path d="M104.11 334.06C103.66 335.83 102.11 337.06 100.64 338.19C99.17 339.32 97.64 340.69 97.46 342.51" stroke="#EFEFEF" stroke-width="0.541386" stroke-linecap="round" stroke-linejoin="round"/>
<path d="M89.36 344.76C91.78 350.03 90.22 356.59 93.09 361.63" stroke="#EFEFEF" stroke-width="0.541386" stroke-linecap="round" stroke-linejoin="round"/>
<path d="M88.91 395.47C89.8025 394.136 90.952 392.994 92.2913 392.109C93.6306 391.225 95.1328 390.617 96.71 390.32C97.62 390.16 98.54 390.1 99.43 389.88C100.781 389.52 102.02 388.824 103.03 387.857C104.041 386.89 104.79 385.684 105.21 384.35C105.43 383.65 105.79 382.75 106.51 382.81" stroke="#EFEFEF" stroke-width="0.541386" stroke-linecap="round" stroke-linejoin="round"/>
<path d="M80.9 380.51C83.24 383.09 83.9 386.76 84.13 390.23C84.36 393.7 84.24 397.23 85.39 400.56" stroke="#EFEFEF" stroke-width="0.541386" stroke-linecap="round" stroke-linejoin="round"/>
<path d="M168.25 386.86C167.34 385.3 165 386.07 163.49 387.28C159.63 390.36 156.69 395.6 152.18 396.52C151.283 396.622 150.392 396.769 149.51 396.96C147.982 397.552 146.673 398.6 145.76 399.96C143.76 402.66 142.64 405.96 141.07 408.96C139.5 411.96 137.14 414.96 134.14 415.55C132.7 415.85 131.22 415.55 129.8 416.07C126.8 417.07 125.37 420.88 124.28 424.07C123.19 427.26 121.48 431.07 118.48 431.77C117.67 431.96 116.84 431.89 116.04 432.15C114.1 432.76 112.89 434.99 111.94 436.99C108.453 444.323 105.207 451.79 102.2 459.39C101.917 459.964 101.786 460.601 101.82 461.24C101.921 461.594 102.096 461.922 102.332 462.205C102.568 462.487 102.86 462.717 103.19 462.88L107.72 465.88C108.485 466.489 109.423 466.839 110.4 466.88C111.532 466.674 112.577 466.134 113.4 465.33C117.467 462.103 121.417 458.68 125.25 455.06C127.6 452.83 130.05 450.28 130.76 447.06C131.13 445.37 130.98 443.63 131.46 441.96C133.25 435.74 141.6 434.96 145.06 429.47C147.28 425.95 146.96 421.24 149.23 417.75C151.84 413.75 157.43 412.01 158.49 407.34C158.84 405.8 158.58 404.23 158.82 402.68C159.56 397.86 164.45 395.04 167.32 391.07C168.23 389.86 169 388.08 168.25 386.86Z" fill="#F9D5C9"/>
<path d="M160.61 394.75C157.2 397.28 153.61 400.11 152.48 404.2C152.21 405.2 152.1 406.29 151.75 407.28C150.02 412.15 143.21 413.48 141.08 418.19C140.44 419.63 140.29 421.25 139.6 422.67C138.22 425.46 135.06 426.81 132.2 428.05C129.34 429.29 126.2 430.97 125.35 433.96C125.093 435.168 124.946 436.396 124.91 437.63C124.716 439.386 124.16 441.083 123.277 442.613C122.394 444.143 121.203 445.473 119.78 446.52C118.61 447.38 117.3 448.03 116.22 448.99C114.756 450.493 113.598 452.266 112.81 454.21C111.477 456.99 110.143 459.767 108.81 462.54" stroke="#212231" stroke-width="0.210699" stroke-linecap="round" stroke-linejoin="round"/>
<path d="M133.51 419.82C133.725 420.788 133.725 421.792 133.51 422.76C133.02 424.76 131.21 426.37 130.94 428.45" stroke="#212231" stroke-width="0.210699" stroke-linecap="round" stroke-linejoin="round"/>
<path d="M148.75 400.43C147.46 402.63 147.75 405.37 147.35 407.89C146.973 410.143 146.003 412.256 144.54 414.01" stroke="#212231" stroke-width="0.210699" stroke-linecap="round" stroke-linejoin="round"/>
<path d="M157.09 406.3C155.25 407.89 152.34 407.79 150.58 409.47" stroke="#212231" stroke-width="0.210699" stroke-linecap="round" stroke-linejoin="round"/>
<path d="M142.64 427.64C140.45 429.81 137.31 430.64 134.29 431.27C131.27 431.9 128.13 432.27 125.45 433.8C125.37 433.85 125.27 433.92 125.28 434.01C125.29 434.1 125.49 434.1 125.45 434.01" stroke="#212231" stroke-width="0.210699" stroke-linecap="round" stroke-linejoin="round"/>
<path d="M118.61 434.32C118.803 436.442 119.181 438.544 119.74 440.6C120.296 442.674 120.142 444.875 119.3 446.85" stroke="#212231" stroke-width="0.210699" stroke-linecap="round" stroke-linejoin="round"/>
<path d="M126.29 450.46C125.936 450.823 125.51 451.109 125.04 451.3C121.92 452.73 118.35 452.68 114.96 453.23C113.96 453.39 112.81 453.74 112.51 454.7" stroke="#212231" stroke-width="0.210699" stroke-linecap="round" stroke-linejoin="round"/>
<path d="M145.42 355.3C143.83 353.62 141.13 355.3 139.59 357.22C135.67 362.22 133.53 369.63 128.16 372.1C127.068 372.492 125.997 372.94 124.95 373.44C123.21 374.616 121.879 376.304 121.14 378.27C119.4 382.27 118.99 386.69 117.92 390.92C116.85 395.15 114.75 399.54 111.19 401.2C109.46 402 107.54 402.09 105.9 403.13C102.51 405.3 101.77 410.44 101.36 414.8C100.95 419.16 99.91 424.36 96.36 426.13C95.36 426.61 94.36 426.77 93.42 427.32C91.18 428.66 90.32 431.8 89.72 434.59C87.52 444.81 85.65 455.1 84.11 465.46C83.9217 466.262 83.9458 467.1 84.18 467.89C84.4111 468.303 84.7262 468.664 85.1052 468.948C85.4841 469.232 85.9184 469.434 86.38 469.54L92.91 471.94C94.0404 472.497 95.3201 472.676 96.56 472.45C97.9189 471.86 99.0712 470.878 99.87 469.63C104.01 464.39 107.943 458.947 111.67 453.3C113.96 449.82 116.28 445.91 116.22 441.67C116.22 439.44 115.49 437.31 115.6 435.08C116.01 426.78 126.22 423.32 128.94 415.47C130.69 410.41 128.94 404.62 130.71 399.58C132.8 393.78 139.29 390 139.24 383.85C139.24 381.85 138.44 379.94 138.24 377.92C137.75 371.68 143.04 366.71 145.46 360.92C146.28 359.06 146.67 356.62 145.42 355.3Z" fill="#382C6F"/>
<path d="M138.18 367.42C134.66 371.58 130.95 376.18 130.79 381.63C130.79 382.98 130.93 384.34 130.79 385.69C130.05 392.28 121.93 395.96 120.65 402.47C120.26 404.47 120.56 406.53 120.11 408.47C119.21 412.37 115.65 414.98 112.43 417.37C109.21 419.76 105.84 422.78 105.6 426.78C105.637 428.366 105.814 429.945 106.13 431.5C106.397 433.754 106.197 436.039 105.541 438.212C104.886 440.385 103.789 442.4 102.32 444.13C101.01 445.442 99.7679 446.82 98.6 448.26C97.06 450.46 96.44 453.16 95.86 455.79C95.0133 459.65 94.16 463.513 93.3 467.38" stroke="#CFD7E0" stroke-width="0.541386" stroke-linecap="round" stroke-linejoin="round"/>
<path d="M111.65 406.73C112.21 407.871 112.517 409.119 112.55 410.39C112.55 413.08 110.73 415.59 111 418.27" stroke="#CFD7E0" stroke-width="0.541386" stroke-linecap="round" stroke-linejoin="round"/>
<path d="M125 378C124 381.13 125.22 384.47 125.44 387.74C125.626 390.669 125.033 393.595 123.72 396.22" stroke="#CFD7E0" stroke-width="0.541386" stroke-linecap="round" stroke-linejoin="round"/>
<path d="M137.17 382.89C135.34 385.43 131.67 386.15 129.96 388.77" stroke="#CFD7E0" stroke-width="0.541386" stroke-linecap="round" stroke-linejoin="round"/>
<path d="M125.35 413.83C123.25 417.18 119.59 419.2 115.99 420.83C112.39 422.46 108.58 423.9 105.67 426.59C105.58 426.67 105.48 426.79 105.52 426.9C105.56 427.01 105.8 426.96 105.73 426.85" stroke="#CFD7E0" stroke-width="0.541386" stroke-linecap="round" stroke-linejoin="round"/>
<path d="M97.26 429.24C97.94 431.89 99.39 434.24 100.52 436.76C101.65 439.28 102.52 442.05 101.81 444.7" stroke="#CFD7E0" stroke-width="0.541386" stroke-linecap="round" stroke-linejoin="round"/>
<path d="M111.6 447.17C111.267 447.727 110.821 448.207 110.29 448.58C106.8 451.29 102.29 452.28 98.24 453.95C97.05 454.45 95.71 455.23 95.62 456.52" stroke="#CFD7E0" stroke-width="0.541386" stroke-linecap="round" stroke-linejoin="round"/>
<path d="M13.85 354.2C15.45 352.52 18.15 354.2 19.68 356.12C23.6 361.12 25.74 368.53 31.11 371C32.2018 371.392 33.2732 371.84 34.32 372.34C36.06 373.516 37.3914 375.204 38.13 377.17C39.87 381.17 40.28 385.59 41.35 389.82C42.42 394.05 44.52 398.44 48.09 400.1C49.81 400.9 51.73 400.99 53.37 402.03C56.77 404.2 57.5 409.34 57.92 413.7C58.34 418.06 59.36 423.26 62.92 425.03C63.92 425.51 64.92 425.67 65.86 426.22C68.1 427.56 68.96 430.7 69.56 433.49C71.7733 443.71 73.6433 454 75.17 464.36C75.3583 465.162 75.3342 466 75.1 466.79C74.8689 467.203 74.5537 467.564 74.1748 467.848C73.7959 468.132 73.3616 468.334 72.9 468.44L66.37 470.84C65.2396 471.397 63.9599 471.576 62.72 471.35C61.3611 470.76 60.2088 469.778 59.41 468.53C55.27 463.29 51.3367 457.847 47.61 452.2C45.32 448.72 43.01 444.81 43.07 440.57C43.07 438.34 43.79 436.21 43.68 433.98C43.27 425.68 33.06 422.22 30.35 414.37C28.59 409.31 30.35 403.52 28.57 398.48C26.48 392.68 20 388.9 20.04 382.75C20.04 380.75 20.84 378.84 21.04 376.82C21.52 370.58 16.23 365.61 13.81 359.82C13 358 12.6 355.52 13.85 354.2Z" fill="#F9D5C9"/>
<path d="M21.09 366.32C24.61 370.48 28.32 375.08 28.48 380.53C28.53 381.88 28.34 383.24 28.48 384.59C29.22 391.18 37.34 394.86 38.62 401.37C39.01 403.37 38.71 405.43 39.16 407.37C40.06 411.27 43.62 413.88 46.84 416.27C50.06 418.66 53.43 421.68 53.67 425.68C53.6377 427.266 53.4603 428.846 53.14 430.4C52.8753 432.662 53.0816 434.955 53.7459 437.134C54.4102 439.312 55.5181 441.33 57 443.06C58.21 444.46 59.66 445.67 60.73 447.19C62.27 449.39 62.88 452.09 63.46 454.72L66 466.31" stroke="#382C6F" stroke-width="0.77097" stroke-linecap="round" stroke-linejoin="round"/>
<path d="M47.62 405.63C47.0598 406.771 46.7528 408.019 46.72 409.29C46.72 411.98 48.54 414.49 48.27 417.17" stroke="#382C6F" stroke-width="0.77097" stroke-linecap="round" stroke-linejoin="round"/>
<path d="M34.25 376.9C35.25 380.03 34.03 383.37 33.81 386.64C33.6236 389.569 34.2171 392.495 35.53 395.12" stroke="#382C6F" stroke-width="0.77097" stroke-linecap="round" stroke-linejoin="round"/>
<path d="M22.1 381.79C23.93 384.33 27.6 385.05 29.31 387.67" stroke="#382C6F" stroke-width="0.77097" stroke-linecap="round" stroke-linejoin="round"/>
<path d="M33.92 412.73C36.02 416.08 39.68 418.1 43.29 419.73C46.9 421.36 50.69 422.8 53.6 425.49C53.69 425.57 53.79 425.69 53.75 425.8C53.71 425.91 53.47 425.86 53.54 425.75" stroke="#382C6F" stroke-width="0.77097" stroke-linecap="round" stroke-linejoin="round"/>
<path d="M62 428.14C61.32 430.79 59.87 433.14 58.74 435.66C57.61 438.18 56.74 440.95 57.45 443.6" stroke="#382C6F" stroke-width="0.77097" stroke-linecap="round" stroke-linejoin="round"/>
<path d="M47.67 446.07C48.0089 446.629 48.4621 447.109 49 447.48C52.49 450.19 57 451.18 61.05 452.86C62.24 453.35 63.58 454.13 63.67 455.42" stroke="#382C6F" stroke-width="0.77097" stroke-linecap="round" stroke-linejoin="round"/>
<path d="M58.74 372.12C60.22 371.12 62.02 372.76 62.88 374.5C65.09 378.92 65.55 384.9 69.26 387.63C69.99 388.17 70.81 388.54 71.5 389.15C72.6369 390.324 73.3872 391.817 73.65 393.43C74.35 396.73 73.96 400.19 74.12 403.59C74.28 406.99 75.18 410.66 77.64 412.48C78.83 413.36 80.28 413.73 81.36 414.78C83.61 416.96 83.36 421 83 424.39C82.64 427.78 82.6 431.91 85 433.81C85.66 434.33 86.43 434.61 87 435.18C88.5 436.55 88.66 439.08 88.68 441.3C88.76 449.44 88.5733 457.58 88.12 465.72C88.1371 466.361 87.9854 466.996 87.68 467.56C87.4414 467.84 87.1458 468.066 86.8131 468.223C86.4803 468.38 86.1179 468.464 85.75 468.47L80.39 469.28C79.4409 469.524 78.4384 469.458 77.53 469.09C76.5852 468.432 75.8604 467.505 75.45 466.43C73.11 461.763 70.9667 456.997 69.02 452.13C67.81 449.13 66.66 445.77 67.37 442.54C67.75 440.85 68.61 439.33 68.88 437.62C69.88 431.23 62.63 426.99 61.79 420.62C61.24 416.49 63.51 412.35 62.92 408.22C62.24 403.47 57.92 399.57 58.92 394.89C59.25 393.34 60.14 392.03 60.58 390.52C61.93 385.84 58.67 381.22 57.74 376.41C57.5 374.84 57.58 372.92 58.74 372.12Z" fill="#1C1737"/>
<path d="M62.36 382.49C64.36 386.21 66.49 390.31 65.77 394.49C65.58 395.49 65.23 396.49 65.13 397.59C64.66 402.73 70.28 406.81 70.23 411.97C70.23 413.55 69.66 415.08 69.7 416.66C69.77 419.77 72.08 422.32 74.15 424.66C76.22 427 78.33 429.82 77.88 432.9C77.6138 434.107 77.232 435.286 76.74 436.42C76.1815 438.096 75.9759 439.868 76.1359 441.627C76.296 443.386 76.8183 445.093 77.67 446.64C78.37 447.91 79.28 449.05 79.86 450.38C80.5567 452.359 80.8624 454.454 80.76 456.55L80.89 465.79" stroke="white" stroke-width="0.77097" stroke-linecap="round" stroke-linejoin="round"/>
<path d="M76.42 416.62C75.813 417.402 75.383 418.306 75.16 419.27C74.75 421.33 75.72 423.52 75.1 425.52" stroke="white" stroke-width="0.77097" stroke-linecap="round" stroke-linejoin="round"/>
<path d="M70.73 392.62C70.98 395.16 69.55 397.52 68.87 399.98C68.2701 402.183 68.2701 404.507 68.87 406.71" stroke="white" stroke-width="0.77097" stroke-linecap="round" stroke-linejoin="round"/>
<path d="M60.7 394.45C61.7 396.67 64.38 397.8 65.28 400.06" stroke="white" stroke-width="0.77097" stroke-linecap="round" stroke-linejoin="round"/>
<path d="M64.85 419.88C65.93 422.77 68.41 424.88 70.9 426.69C73.39 428.5 76.07 430.19 77.9 432.69C77.9354 432.724 77.96 432.768 77.9707 432.816C77.9814 432.864 77.9777 432.914 77.96 432.96C77.96 433.04 77.74 432.96 77.81 432.89" stroke="white" stroke-width="0.77097" stroke-linecap="round" stroke-linejoin="round"/>
<path d="M83.85 436C82.7867 437.845 81.5619 439.592 80.19 441.22C78.8198 442.886 78.0486 444.964 78 447.12" stroke="white" stroke-width="0.77097" stroke-linecap="round" stroke-linejoin="round"/>
<path d="M70.11 447.46C70.2756 447.937 70.5416 448.374 70.89 448.74C73.12 451.36 76.38 452.81 79.23 454.74C80.06 455.3 80.96 456.11 80.83 457.11" stroke="white" stroke-width="0.77097" stroke-linecap="round" stroke-linejoin="round"/>
<path d="M126.5 464.91H57L60.56 493.81C61.17 498.81 68.06 502.74 76.35 502.74H107.18C115.47 502.74 122.35 498.84 122.97 493.81L126.5 464.91Z" fill="#FFBA4F"/>
<path d="M185.83 328.55L238.91 344.17L258.69 348.33C258.69 348.33 261.2 352.01 258.38 351.73C255.56 351.45 233.71 351.45 233.71 351.45L230.59 349.37C230.59 349.37 186.87 349.37 178.54 347.29C170.21 345.21 185.83 328.55 185.83 328.55Z" fill="#FF899E"/>
<path opacity="0.45" d="M321.14 313.98L264.94 205.73L211.85 244.24L209.47 337.05L258.38 351.73L321.14 313.98Z" fill="url(#paint0_linear_224_36)"/>
<path d="M320.66 314.16L264.02 314.04L256.08 355.31L312.34 355.99L320.66 314.16Z" fill="#E0598E"/>
<path d="M235.45 355.26L256.61 355.34L257.65 351.76L235.46 351.68L235.45 355.26Z" fill="#C94F80"/>
<path d="M294.06 329.39C293.501 329.391 292.95 329.521 292.45 329.77C291.934 330.018 291.467 330.357 291.07 330.77C290.657 331.223 290.319 331.74 290.07 332.3C289.804 332.892 289.639 333.524 289.58 334.17C289.519 334.797 289.566 335.429 289.72 336.04C289.867 336.588 290.114 337.103 290.45 337.56C290.767 337.978 291.174 338.32 291.64 338.56C292.116 338.807 292.644 338.934 293.18 338.93C293.735 338.925 294.282 338.795 294.78 338.55C295.298 338.305 295.766 337.966 296.16 337.55C296.575 337.102 296.913 336.588 297.16 336.03C297.427 335.442 297.592 334.813 297.65 334.17C297.711 333.543 297.664 332.911 297.51 332.3C297.363 331.752 297.116 331.237 296.78 330.78C296.466 330.363 296.063 330.021 295.6 329.78C295.124 329.535 294.596 329.408 294.06 329.41" fill="white"/>
<path d="M465 347.66L471.38 344.33C471.489 344.273 471.577 344.181 471.63 344.07C472.716 341.807 473.688 339.491 474.54 337.13C474.576 337.025 474.582 336.912 474.556 336.804C474.53 336.697 474.474 336.598 474.394 336.522C474.314 336.445 474.214 336.392 474.105 336.371C473.996 336.349 473.883 336.359 473.78 336.4L471 337.52C470.867 337.596 470.71 337.615 470.563 337.575C470.416 337.535 470.291 337.438 470.215 337.305C470.139 337.172 470.12 337.015 470.16 336.868C470.2 336.721 470.297 336.596 470.43 336.52L476.15 331.9C476.24 331.824 476.306 331.723 476.34 331.61C476.94 329.55 477.5 327.41 477.99 325.21C478.34 323.67 478.64 322.14 478.9 320.64C478.918 320.524 478.901 320.405 478.85 320.299C478.8 320.193 478.718 320.105 478.616 320.046C478.514 319.987 478.397 319.961 478.28 319.971C478.162 319.981 478.051 320.026 477.96 320.1L476.41 321.41C476.305 321.513 476.164 321.571 476.017 321.573C475.87 321.574 475.728 321.519 475.621 321.418C475.514 321.317 475.45 321.179 475.442 321.032C475.435 320.885 475.484 320.741 475.58 320.63L479.58 315.29C479.643 315.205 479.681 315.105 479.69 315C480.074 311.771 480.251 308.521 480.22 305.27C480.22 305.167 480.193 305.066 480.141 304.978C480.088 304.89 480.013 304.817 479.923 304.768C479.833 304.719 479.731 304.695 479.628 304.699C479.526 304.703 479.426 304.734 479.34 304.79L475.18 307.43C475.07 307.498 474.941 307.528 474.813 307.514C474.685 307.501 474.564 307.445 474.471 307.355C474.379 307.266 474.318 307.148 474.3 307.02C474.281 306.892 474.306 306.762 474.37 306.65L479.46 297.78C479.527 297.662 479.552 297.524 479.53 297.39C478.53 291.82 476.44 288.14 473.42 287.46C470.4 286.78 467.01 289.19 463.76 293.72C463.679 293.833 463.64 293.971 463.65 294.11L464.65 304.01C464.659 304.141 464.623 304.27 464.549 304.378C464.474 304.485 464.366 304.565 464.241 304.603C464.116 304.641 463.981 304.636 463.86 304.588C463.738 304.541 463.636 304.453 463.57 304.34L461.14 299.88C461.089 299.793 461.016 299.721 460.928 299.671C460.84 299.62 460.741 299.594 460.64 299.594C460.539 299.594 460.44 299.62 460.352 299.671C460.264 299.721 460.191 299.793 460.14 299.88C458.667 302.828 457.394 305.871 456.33 308.99C456.301 309.058 456.285 309.131 456.285 309.205C456.285 309.279 456.301 309.352 456.33 309.42L458.94 315.22C458.992 315.339 459.003 315.473 458.97 315.599C458.937 315.725 458.862 315.836 458.758 315.915C458.654 315.993 458.527 316.035 458.396 316.032C458.266 316.029 458.141 315.983 458.04 315.9L455.63 313.82C455.556 313.758 455.468 313.715 455.374 313.696C455.279 313.676 455.182 313.68 455.089 313.708C454.997 313.736 454.913 313.786 454.845 313.855C454.777 313.923 454.727 314.008 454.7 314.1C454.19 315.9 453.7 317.77 453.29 319.68C453.09 320.54 452.92 321.4 452.75 322.25C452.72 322.383 452.742 322.522 452.81 322.64C454.16 325.03 455.81 328.08 456.97 330.35C457.027 330.471 457.04 330.608 457.007 330.737C456.975 330.866 456.899 330.981 456.792 331.061C456.685 331.14 456.554 331.181 456.421 331.175C456.287 331.17 456.16 331.119 456.06 331.03L452.75 327.79C452.674 327.709 452.576 327.651 452.468 327.624C452.36 327.597 452.246 327.602 452.14 327.638C452.035 327.674 451.942 327.739 451.873 327.827C451.804 327.914 451.761 328.019 451.75 328.13C451.346 331.138 451.102 334.166 451.02 337.2C451.02 337.325 451.058 337.447 451.13 337.55L452.61 339.63C452.687 339.734 452.726 339.862 452.721 339.991C452.716 340.121 452.667 340.245 452.582 340.343C452.497 340.441 452.381 340.507 452.253 340.53C452.126 340.553 451.994 340.532 451.88 340.47V340.47C451.79 340.425 451.69 340.404 451.589 340.409C451.488 340.414 451.391 340.446 451.306 340.5C451.221 340.555 451.152 340.631 451.105 340.72C451.059 340.809 451.036 340.909 451.04 341.01C451.37 350.12 453.73 356.51 457.81 357.42C461.15 358.17 465.02 355.09 468.61 349.48C468.666 349.391 468.698 349.288 468.7 349.182C468.702 349.077 468.676 348.973 468.623 348.881C468.571 348.79 468.494 348.714 468.402 348.663C468.31 348.612 468.205 348.586 468.1 348.59L465.28 348.71C465.159 348.704 465.043 348.66 464.949 348.584C464.855 348.508 464.787 348.404 464.756 348.287C464.725 348.17 464.731 348.047 464.775 347.934C464.819 347.821 464.898 347.725 465 347.66V347.66Z" fill="#FF899E"/>
<path d="M454.49 342.27L460.61 335.5C460.72 335.386 460.787 335.238 460.8 335.08C461.05 331.983 461.14 328.876 461.07 325.77C461.063 325.628 461.016 325.492 460.934 325.376C460.851 325.26 460.737 325.171 460.606 325.118C460.474 325.066 460.33 325.052 460.191 325.079C460.051 325.106 459.923 325.172 459.82 325.27L457 327.85C456.875 327.971 456.711 328.042 456.537 328.053C456.364 328.063 456.192 328.011 456.053 327.906C455.915 327.801 455.818 327.65 455.781 327.481C455.744 327.311 455.768 327.133 455.85 326.98L460.59 318.98C460.668 318.855 460.703 318.707 460.69 318.56C460.46 315.92 460.13 313.21 459.69 310.45C459.383 308.523 459.05 306.633 458.69 304.78C458.652 304.635 458.571 304.505 458.459 304.405C458.346 304.306 458.207 304.242 458.058 304.222C457.91 304.201 457.758 304.226 457.623 304.291C457.488 304.357 457.376 304.461 457.3 304.59L456 306.87C455.914 307.026 455.774 307.146 455.607 307.208C455.44 307.269 455.256 307.268 455.089 307.205C454.923 307.142 454.784 307.02 454.7 306.863C454.616 306.706 454.591 306.524 454.63 306.35L457 298.35C457.03 298.225 457.03 298.095 457 297.97C455.952 294.079 454.649 290.26 453.1 286.54C453.046 286.422 452.962 286.32 452.857 286.244C452.752 286.168 452.629 286.121 452.5 286.107C452.371 286.093 452.24 286.112 452.121 286.164C452.002 286.215 451.898 286.297 451.82 286.4L448.04 291.4C447.944 291.529 447.808 291.623 447.653 291.668C447.498 291.713 447.333 291.706 447.182 291.648C447.031 291.591 446.904 291.485 446.819 291.348C446.733 291.212 446.695 291.051 446.71 290.89L448.71 278.35C448.737 278.18 448.702 278.006 448.61 277.86C444.8 271.93 440.61 268.66 436.61 269.28C432.61 269.9 429.7 274.22 427.89 280.93C427.849 281.098 427.87 281.276 427.95 281.43L433.7 292.36C433.769 292.512 433.784 292.682 433.744 292.844C433.703 293.006 433.61 293.149 433.478 293.251C433.346 293.353 433.184 293.407 433.017 293.405C432.85 293.403 432.689 293.345 432.56 293.24L427.56 289.24C427.456 289.155 427.331 289.099 427.198 289.079C427.066 289.058 426.93 289.074 426.805 289.124C426.68 289.174 426.571 289.257 426.49 289.363C426.408 289.47 426.356 289.597 426.34 289.73C425.955 293.775 425.841 297.84 426 301.9C426.009 302.087 426.092 302.263 426.23 302.39L432.08 307.84C432.203 307.955 432.282 308.11 432.303 308.278C432.324 308.446 432.285 308.615 432.193 308.757C432.101 308.899 431.962 309.004 431.801 309.054C431.64 309.104 431.466 309.095 431.31 309.03L427.44 307.76C427.323 307.719 427.198 307.707 427.076 307.725C426.954 307.744 426.838 307.792 426.739 307.867C426.64 307.941 426.561 308.039 426.509 308.151C426.456 308.263 426.433 308.386 426.44 308.51C426.66 310.82 426.96 313.18 427.33 315.57C427.5 316.65 427.68 317.72 427.88 318.77C427.908 318.939 428.001 319.09 428.14 319.19C430.87 321.32 434.25 324.07 436.74 326.13C436.877 326.242 436.968 326.401 436.995 326.576C437.022 326.752 436.984 326.931 436.887 327.079C436.791 327.228 436.643 327.335 436.471 327.382C436.3 327.428 436.118 327.41 435.96 327.33L430.46 325.14C430.336 325.093 430.201 325.081 430.07 325.103C429.939 325.126 429.817 325.183 429.715 325.268C429.613 325.354 429.536 325.465 429.491 325.59C429.446 325.715 429.436 325.849 429.46 325.98C430.371 329.626 431.486 333.219 432.8 336.74C432.857 336.888 432.963 337.011 433.1 337.09L435.85 338.79C435.983 338.881 436.082 339.014 436.131 339.167C436.18 339.321 436.175 339.486 436.119 339.637C436.062 339.788 435.957 339.916 435.819 340C435.682 340.084 435.52 340.119 435.36 340.1C435.235 340.088 435.109 340.109 434.994 340.159C434.879 340.21 434.778 340.289 434.702 340.389C434.626 340.489 434.577 340.607 434.559 340.731C434.541 340.856 434.555 340.983 434.6 341.1C439.24 351.42 445.06 357.67 450.39 356.83C454.77 356.15 458 350.83 459.71 342.71C459.728 342.583 459.713 342.452 459.665 342.333C459.617 342.213 459.538 342.109 459.437 342.03C459.335 341.95 459.214 341.899 459.087 341.882C458.959 341.864 458.829 341.881 458.71 341.93L455.37 343.37C455.223 343.46 455.047 343.493 454.877 343.463C454.707 343.434 454.553 343.343 454.445 343.208C454.337 343.073 454.282 342.903 454.291 342.73C454.299 342.558 454.37 342.394 454.49 342.27V342.27Z" fill="#E0598E"/>
<path d="M448.83 348.06L450.66 343.6C450.69 343.519 450.69 343.431 450.66 343.35C450.27 341.82 449.76 340.21 449.15 338.54C449.126 338.469 449.082 338.406 449.023 338.36C448.963 338.314 448.892 338.287 448.817 338.281C448.742 338.276 448.667 338.293 448.602 338.33C448.536 338.367 448.484 338.423 448.45 338.49L447.51 340.26C447.477 340.355 447.407 340.434 447.316 340.478C447.225 340.522 447.12 340.528 447.025 340.495C446.93 340.462 446.851 340.392 446.807 340.301C446.763 340.21 446.757 340.105 446.79 340.01L447.72 335.17C447.745 335.095 447.745 335.015 447.72 334.94C447.14 333.62 446.5 332.28 445.8 330.94C445.31 330 444.8 329.09 444.29 328.2C444.252 328.13 444.192 328.073 444.12 328.039C444.048 328.005 443.967 327.994 443.888 328.008C443.809 328.023 443.737 328.061 443.682 328.119C443.627 328.177 443.591 328.251 443.58 328.33L443.35 329.68C443.335 329.771 443.288 329.855 443.218 329.915C443.147 329.975 443.058 330.008 442.965 330.008C442.872 330.008 442.783 329.975 442.712 329.915C442.642 329.855 442.595 329.771 442.58 329.68L442.34 325.19C442.334 325.123 442.313 325.058 442.28 325C441.079 323.178 439.763 321.435 438.34 319.78C438.295 319.729 438.237 319.691 438.173 319.669C438.108 319.647 438.039 319.643 437.973 319.656C437.906 319.669 437.844 319.699 437.793 319.744C437.741 319.789 437.702 319.846 437.68 319.91L436.68 323.06C436.657 323.141 436.608 323.213 436.54 323.264C436.472 323.315 436.39 323.343 436.305 323.343C436.22 323.343 436.138 323.315 436.07 323.264C436.002 323.213 435.953 323.141 435.93 323.06L434.7 316.31C434.687 316.22 434.641 316.137 434.57 316.08C431.64 313.66 428.98 312.67 427.14 313.63C425.3 314.59 424.61 317.28 424.89 321.01C424.901 321.104 424.943 321.193 425.01 321.26L429.78 325.92C429.842 325.983 429.88 326.065 429.889 326.153C429.898 326.241 429.877 326.329 429.83 326.403C429.782 326.477 429.711 326.533 429.627 326.562C429.544 326.59 429.453 326.59 429.37 326.56L426.19 325.32C426.125 325.293 426.053 325.286 425.983 325.298C425.914 325.309 425.849 325.34 425.796 325.387C425.743 325.434 425.704 325.494 425.683 325.562C425.663 325.63 425.662 325.702 425.68 325.77C426.205 327.919 426.874 330.03 427.68 332.09C427.696 332.136 427.721 332.178 427.753 332.214C427.786 332.251 427.826 332.28 427.87 332.3L431.72 334.14C431.799 334.179 431.862 334.243 431.9 334.322C431.938 334.402 431.948 334.492 431.928 334.577C431.908 334.663 431.86 334.739 431.792 334.794C431.723 334.849 431.638 334.88 431.55 334.88H429.42C429.355 334.877 429.29 334.891 429.232 334.921C429.174 334.951 429.125 334.995 429.088 335.049C429.052 335.103 429.031 335.166 429.026 335.231C429.021 335.296 429.032 335.361 429.06 335.42C429.58 336.57 430.14 337.73 430.75 338.89C431.02 339.42 431.3 339.89 431.58 340.44C431.629 340.517 431.698 340.58 431.78 340.62C433.51 341.26 435.66 342.12 437.25 342.77C437.344 342.796 437.425 342.858 437.475 342.942C437.525 343.026 437.541 343.126 437.519 343.221C437.497 343.317 437.439 343.4 437.358 343.454C437.276 343.508 437.176 343.528 437.08 343.51L433.98 343.29C433.908 343.281 433.834 343.294 433.769 343.325C433.703 343.357 433.648 343.407 433.611 343.469C433.573 343.532 433.553 343.603 433.555 343.676C433.557 343.749 433.579 343.82 433.62 343.88C434.713 345.609 435.898 347.278 437.17 348.88C437.221 348.949 437.296 348.995 437.38 349.01L439.03 349.44C439.119 349.455 439.2 349.5 439.258 349.569C439.317 349.638 439.349 349.725 439.349 349.815C439.349 349.905 439.317 349.992 439.258 350.061C439.2 350.13 439.119 350.175 439.03 350.19V350.19C438.965 350.205 438.905 350.237 438.857 350.283C438.808 350.329 438.772 350.386 438.753 350.45C438.734 350.514 438.732 350.582 438.747 350.647C438.762 350.712 438.794 350.771 438.84 350.82C442.94 355.36 446.92 357.61 449.4 356.32C451.4 355.26 452.09 352 451.51 347.57C451.5 347.5 451.47 347.434 451.425 347.379C451.38 347.324 451.321 347.283 451.254 347.259C451.187 347.236 451.115 347.231 451.046 347.245C450.976 347.259 450.912 347.292 450.86 347.34L449.47 348.62C449.396 348.705 449.291 348.757 449.178 348.764C449.066 348.772 448.955 348.734 448.87 348.66C448.785 348.586 448.733 348.481 448.726 348.368C448.718 348.256 448.756 348.145 448.83 348.06V348.06Z" fill="#FF899E"/>
<path d="M444 383.72H465.27C467.803 382.106 469.934 379.936 471.501 377.374C473.068 374.812 474.029 371.926 474.312 368.936C474.595 365.946 474.191 362.931 473.132 360.121C472.072 357.311 470.386 354.78 468.2 352.72C459.191 353.827 450.079 353.827 441.07 352.72C438.884 354.78 437.197 357.311 436.138 360.121C435.079 362.931 434.675 365.946 434.958 368.936C435.241 371.926 436.202 374.812 437.769 377.374C439.336 379.936 441.467 382.106 444 383.72V383.72Z" fill="#FFBA4F"/>
<defs>
<linearGradient id="paint0_linear_224_36" x1="313.72" y1="339.63" x2="234.44" y2="268.92" gradientUnits="userSpaceOnUse">
<stop stop-color="white"/>
<stop offset="0.02" stop-color="white" stop-opacity="0.96"/>
<stop offset="0.14" stop-color="white" stop-opacity="0.74"/>
<stop offset="0.25" stop-color="white" stop-opacity="0.54"/>
<stop offset="0.37" stop-color="white" stop-opacity="0.37"/>
<stop offset="0.49" stop-color="white" stop-opacity="0.24"/>
<stop offset="0.61" stop-color="white" stop-opacity="0.13"/>
<stop offset="0.74" stop-color="white" stop-opacity="0.06"/>
<stop offset="0.86" stop-color="white" stop-opacity="0.01"/>
<stop offset="1" stop-color="white" stop-opacity="0"/>
</linearGradient>
</defs>
</svg>
